<svg width="360" height="75" viewBox="0 0 360 75" fill="none" xmlns="http://www.w3.org/2000/svg">
<path d="M0 10C0 4.47715 4.47715 0 10 0H350C355.523 0 360 4.47715 360 10V65C360 70.5229 355.523 75 350 75H10C4.47716 75 0 70.5229 0 65V10Z" fill="#710707"/>
<path d="M69.166 45V29.3594H73.5381C74.82 29.3594 75.9694 29.653 76.9863 30.2402C78.0033 30.8203 78.7946 31.6546 79.3604 32.7432C79.9333 33.8317 80.2197 35.0706 80.2197 36.46V37.8994C80.2197 39.2959 79.9368 40.5348 79.3711 41.6162C78.8053 42.6976 78.0068 43.5319 76.9756 44.1191C75.9515 44.7064 74.7734 45 73.4414 45H69.166ZM70.4873 30.4873V43.8828H73.4521C75.0993 43.8828 76.4206 43.3385 77.416 42.25C78.4115 41.1543 78.9092 39.6755 78.9092 37.8135V36.4385C78.9092 34.641 78.4186 33.2015 77.4375 32.1201C76.4564 31.0387 75.1637 30.4945 73.5596 30.4873H70.4873ZM86.7207 45H85.4316V33.377H86.7207V45ZM85.2061 30.0146C85.2061 29.7712 85.2848 29.5671 85.4424 29.4023C85.5999 29.2305 85.8148 29.1445 86.0869 29.1445C86.359 29.1445 86.5739 29.2305 86.7314 29.4023C86.8962 29.5671 86.9785 29.7712 86.9785 30.0146C86.9785 30.2581 86.8962 30.4622 86.7314 30.627C86.5739 30.7917 86.359 30.874 86.0869 30.874C85.8148 30.874 85.5999 30.7917 85.4424 30.627C85.2848 30.4622 85.2061 30.2581 85.2061 30.0146ZM99.1836 42.0459C99.1836 41.4085 98.9258 40.8965 98.4102 40.5098C97.9017 40.123 97.1318 39.8223 96.1006 39.6074C95.0693 39.3854 94.2673 39.1348 93.6943 38.8555C93.1286 38.569 92.7061 38.2217 92.4268 37.8135C92.1546 37.4053 92.0186 36.9111 92.0186 36.3311C92.0186 35.4144 92.4017 34.6589 93.168 34.0645C93.9342 33.4629 94.9154 33.1621 96.1113 33.1621C97.4076 33.1621 98.446 33.4844 99.2266 34.1289C100.014 34.7663 100.408 35.6006 100.408 36.6318H99.1191C99.1191 35.9515 98.8327 35.3857 98.2598 34.9346C97.694 34.4834 96.9779 34.2578 96.1113 34.2578C95.2663 34.2578 94.5859 34.4476 94.0703 34.8271C93.5618 35.1995 93.3076 35.6865 93.3076 36.2881C93.3076 36.8682 93.5189 37.3193 93.9414 37.6416C94.3711 37.9567 95.1481 38.2467 96.2725 38.5117C97.404 38.7767 98.249 39.0596 98.8076 39.3604C99.3734 39.6611 99.7923 40.0228 100.064 40.4453C100.337 40.8678 100.473 41.3799 100.473 41.9814C100.473 42.9626 100.075 43.7467 99.2803 44.334C98.4925 44.9212 97.4613 45.2148 96.1865 45.2148C94.833 45.2148 93.7337 44.889 92.8887 44.2373C92.0508 43.5785 91.6318 42.7477 91.6318 41.7451H92.9209C92.971 42.4971 93.2861 43.0843 93.8662 43.5068C94.4535 43.9222 95.2269 44.1299 96.1865 44.1299C97.0817 44.1299 97.805 43.9329 98.3564 43.5391C98.9079 43.1452 99.1836 42.6475 99.1836 42.0459ZM109.67 44.1299C110.565 44.1299 111.313 43.8792 111.915 43.3779C112.524 42.8695 112.853 42.2142 112.903 41.4121H114.139C114.103 42.1211 113.881 42.7692 113.473 43.3564C113.064 43.9365 112.52 44.3913 111.84 44.7207C111.167 45.0501 110.443 45.2148 109.67 45.2148C108.145 45.2148 106.934 44.6849 106.039 43.625C105.151 42.5651 104.707 41.14 104.707 39.3496V38.9629C104.707 37.8171 104.908 36.8037 105.309 35.9229C105.71 35.042 106.283 34.3617 107.027 33.8818C107.779 33.402 108.657 33.1621 109.659 33.1621C110.934 33.1621 111.983 33.5417 112.807 34.3008C113.637 35.0599 114.081 36.0589 114.139 37.2979H112.903C112.846 36.3883 112.517 35.6543 111.915 35.0957C111.321 34.5371 110.569 34.2578 109.659 34.2578C108.499 34.2578 107.597 34.6768 106.952 35.5146C106.315 36.3525 105.996 37.527 105.996 39.0381V39.4141C105.996 40.8965 106.315 42.0531 106.952 42.8838C107.597 43.7145 108.503 44.1299 109.67 44.1299ZM118.008 39.0166C118.008 37.8994 118.223 36.8932 118.652 35.998C119.089 35.1029 119.701 34.4082 120.489 33.9141C121.284 33.4128 122.183 33.1621 123.186 33.1621C124.732 33.1621 125.986 33.7064 126.945 34.7949C127.905 35.8763 128.385 37.3122 128.385 39.1025V39.3711C128.385 40.4954 128.166 41.5088 127.729 42.4111C127.3 43.3063 126.691 43.9974 125.903 44.4844C125.116 44.9714 124.217 45.2148 123.207 45.2148C121.667 45.2148 120.414 44.6742 119.447 43.5928C118.488 42.5042 118.008 41.0648 118.008 39.2744V39.0166ZM119.297 39.3711C119.297 40.7604 119.655 41.9027 120.371 42.7979C121.094 43.6859 122.04 44.1299 123.207 44.1299C124.367 44.1299 125.305 43.6859 126.021 42.7979C126.745 41.9027 127.106 40.7246 127.106 39.2637V39.0166C127.106 38.1286 126.942 37.3158 126.612 36.5781C126.283 35.8405 125.821 35.2712 125.227 34.8701C124.632 34.4619 123.952 34.2578 123.186 34.2578C122.04 34.2578 121.105 34.709 120.382 35.6113C119.659 36.5065 119.297 37.681 119.297 39.1348V39.3711ZM136.497 43.2275L140.031 33.377H141.353L137.013 45H135.971L131.609 33.377H132.931L136.497 43.2275ZM149.819 45.2148C148.831 45.2148 147.936 44.9714 147.134 44.4844C146.339 43.9974 145.719 43.3206 145.275 42.4541C144.831 41.5804 144.609 40.6029 144.609 39.5215V39.0596C144.609 37.9424 144.824 36.9362 145.254 36.041C145.691 35.1458 146.296 34.444 147.069 33.9355C147.843 33.4199 148.681 33.1621 149.583 33.1621C150.994 33.1621 152.111 33.6455 152.935 34.6123C153.765 35.5719 154.181 36.8861 154.181 38.5547V39.2744H145.888V39.5215C145.888 40.8392 146.264 41.9385 147.016 42.8193C147.775 43.693 148.727 44.1299 149.873 44.1299C150.561 44.1299 151.166 44.0046 151.688 43.7539C152.218 43.5033 152.698 43.1022 153.128 42.5508L153.934 43.1631C152.988 44.5309 151.617 45.2148 149.819 45.2148ZM149.583 34.2578C148.616 34.2578 147.8 34.6123 147.134 35.3213C146.475 36.0303 146.074 36.9827 145.931 38.1787H152.902V38.0391C152.867 36.9219 152.548 36.0124 151.946 35.3105C151.345 34.6087 150.557 34.2578 149.583 34.2578ZM164.055 34.4727C163.783 34.4225 163.493 34.3975 163.185 34.3975C162.382 34.3975 161.702 34.623 161.144 35.0742C160.592 35.5182 160.198 36.1663 159.962 37.0186V45H158.684V33.377H159.94L159.962 35.2246C160.642 33.8496 161.734 33.1621 163.238 33.1621C163.596 33.1621 163.879 33.2087 164.087 33.3018L164.055 34.4727ZM177.443 30.4014V33.377H179.85V34.4297H177.443V42.1748C177.443 42.8193 177.558 43.2992 177.787 43.6143C178.023 43.9294 178.414 44.0869 178.958 44.0869C179.173 44.0869 179.52 44.0511 180 43.9795L180.054 45.0322C179.717 45.154 179.259 45.2148 178.679 45.2148C177.798 45.2148 177.157 44.9606 176.756 44.4521C176.355 43.9365 176.154 43.181 176.154 42.1855V34.4297H174.017V33.377H176.154V30.4014H177.443ZM185.792 35.3428C186.215 34.6481 186.755 34.111 187.414 33.7314C188.073 33.3519 188.793 33.1621 189.573 33.1621C190.819 33.1621 191.747 33.513 192.355 34.2148C192.964 34.9167 193.272 35.9694 193.279 37.373V45H192.001V37.3623C191.994 36.3239 191.772 35.5505 191.335 35.042C190.905 34.5335 190.214 34.2793 189.262 34.2793C188.467 34.2793 187.761 34.5299 187.146 35.0312C186.537 35.5254 186.086 36.195 185.792 37.04V45H184.514V28.5H185.792V35.3428ZM203.089 45.2148C202.101 45.2148 201.205 44.9714 200.403 44.4844C199.608 43.9974 198.989 43.3206 198.545 42.4541C198.101 41.5804 197.879 40.6029 197.879 39.5215V39.0596C197.879 37.9424 198.094 36.9362 198.523 36.041C198.96 35.1458 199.565 34.444 200.339 33.9355C201.112 33.4199 201.95 33.1621 202.853 33.1621C204.263 33.1621 205.381 33.6455 206.204 34.6123C207.035 35.5719 207.45 36.8861 207.45 38.5547V39.2744H199.157V39.5215C199.157 40.8392 199.533 41.9385 200.285 42.8193C201.044 43.693 201.997 44.1299 203.143 44.1299C203.83 44.1299 204.435 44.0046 204.958 43.7539C205.488 43.5033 205.968 43.1022 206.397 42.5508L207.203 43.1631C206.258 44.5309 204.886 45.2148 203.089 45.2148ZM202.853 34.2578C201.886 34.2578 201.069 34.6123 200.403 35.3213C199.744 36.0303 199.343 36.9827 199.2 38.1787H206.172V38.0391C206.136 36.9219 205.817 36.0124 205.216 35.3105C204.614 34.6087 203.826 34.2578 202.853 34.2578ZM220.936 43.8828H228.659V45H219.604V29.3594H220.936V43.8828ZM232.195 39.0166C232.195 37.8994 232.41 36.8932 232.84 35.998C233.277 35.1029 233.889 34.4082 234.677 33.9141C235.472 33.4128 236.37 33.1621 237.373 33.1621C238.92 33.1621 240.173 33.7064 241.133 34.7949C242.092 35.8763 242.572 37.3122 242.572 39.1025V39.3711C242.572 40.4954 242.354 41.5088 241.917 42.4111C241.487 43.3063 240.879 43.9974 240.091 44.4844C239.303 44.9714 238.404 45.2148 237.395 45.2148C235.855 45.2148 234.602 44.6742 233.635 43.5928C232.675 42.5042 232.195 41.0648 232.195 39.2744V39.0166ZM233.484 39.3711C233.484 40.7604 233.842 41.9027 234.559 42.7979C235.282 43.6859 236.227 44.1299 237.395 44.1299C238.555 44.1299 239.493 43.6859 240.209 42.7979C240.932 41.9027 241.294 40.7246 241.294 39.2637V39.0166C241.294 38.1286 241.129 37.3158 240.8 36.5781C240.47 35.8405 240.008 35.2712 239.414 34.8701C238.82 34.4619 238.139 34.2578 237.373 34.2578C236.227 34.2578 235.293 34.709 234.569 35.6113C233.846 36.5065 233.484 37.681 233.484 39.1348V39.3711ZM254.713 43.5283C253.939 44.6527 252.704 45.2148 251.007 45.2148C249.768 45.2148 248.826 44.8568 248.182 44.1406C247.537 43.4173 247.208 42.3503 247.193 40.9395V33.377H248.472V40.7783C248.472 42.9912 249.367 44.0977 251.157 44.0977C253.019 44.0977 254.197 43.3278 254.691 41.7881V33.377H255.98V45H254.734L254.713 43.5283ZM264.952 43.2275L268.486 33.377H269.808L265.468 45H264.426L260.064 33.377H261.386L264.952 43.2275ZM279.295 34.4727C279.023 34.4225 278.733 34.3975 278.425 34.3975C277.623 34.3975 276.942 34.623 276.384 35.0742C275.832 35.5182 275.438 36.1663 275.202 37.0186V45H273.924V33.377H275.181L275.202 35.2246C275.882 33.8496 276.975 33.1621 278.479 33.1621C278.837 33.1621 279.119 33.2087 279.327 33.3018L279.295 34.4727ZM287.622 45.2148C286.634 45.2148 285.739 44.9714 284.937 44.4844C284.142 43.9974 283.522 43.3206 283.078 42.4541C282.634 41.5804 282.412 40.6029 282.412 39.5215V39.0596C282.412 37.9424 282.627 36.9362 283.057 36.041C283.493 35.1458 284.099 34.444 284.872 33.9355C285.646 33.4199 286.483 33.1621 287.386 33.1621C288.797 33.1621 289.914 33.6455 290.737 34.6123C291.568 35.5719 291.983 36.8861 291.983 38.5547V39.2744H283.69V39.5215C283.69 40.8392 284.066 41.9385 284.818 42.8193C285.577 43.693 286.53 44.1299 287.676 44.1299C288.363 44.1299 288.968 44.0046 289.491 43.7539C290.021 43.5033 290.501 43.1022 290.931 42.5508L291.736 43.1631C290.791 44.5309 289.42 45.2148 287.622 45.2148ZM287.386 34.2578C286.419 34.2578 285.603 34.6123 284.937 35.3213C284.278 36.0303 283.877 36.9827 283.733 38.1787H290.705V38.0391C290.669 36.9219 290.351 36.0124 289.749 35.3105C289.147 34.6087 288.36 34.2578 287.386 34.2578Z" fill="white"/>
</svg>
