<svg width="436" height="22" viewBox="0 0 436 22" fill="none" xmlns="http://www.w3.org/2000/svg">
<path d="M11.4805 11.7031H2.19727V21H0.515625V1.09375H12.8477V2.5293H2.19727V10.2676H11.4805V11.7031ZM24.3633 7.60156C24.0169 7.53776 23.6478 7.50586 23.2559 7.50586C22.235 7.50586 21.3691 7.79297 20.6582 8.36719C19.9564 8.93229 19.4551 9.75716 19.1543 10.8418V21H17.5273V6.20703H19.127L19.1543 8.55859C20.0202 6.80859 21.4102 5.93359 23.3242 5.93359C23.7799 5.93359 24.14 5.99284 24.4043 6.11133L24.3633 7.60156ZM27.7852 13.3848C27.7852 11.9629 28.0586 10.6823 28.6055 9.54297C29.1615 8.40365 29.9408 7.51953 30.9434 6.89062C31.9551 6.2526 33.099 5.93359 34.375 5.93359C36.3438 5.93359 37.9388 6.6263 39.1602 8.01172C40.3815 9.38802 40.9922 11.2155 40.9922 13.4941V13.8359C40.9922 15.2669 40.7142 16.5566 40.1582 17.7051C39.6113 18.8444 38.8366 19.724 37.834 20.3438C36.8314 20.9635 35.6875 21.2734 34.4023 21.2734C32.4427 21.2734 30.8477 20.5853 29.6172 19.209C28.3958 17.8236 27.7852 15.9915 27.7852 13.7129V13.3848ZM29.4258 13.8359C29.4258 15.6042 29.8815 17.0579 30.793 18.1973C31.7135 19.3275 32.9167 19.8926 34.4023 19.8926C35.8789 19.8926 37.0729 19.3275 37.9844 18.1973C38.9049 17.0579 39.3652 15.5586 39.3652 13.6992V13.3848C39.3652 12.2546 39.1556 11.2201 38.7363 10.2812C38.3171 9.34245 37.7292 8.61784 36.9727 8.10742C36.2161 7.58789 35.3503 7.32812 34.375 7.32812C32.9167 7.32812 31.7272 7.90234 30.8066 9.05078C29.8861 10.1901 29.4258 11.6849 29.4258 13.5352V13.8359ZM47.873 6.20703L47.9277 8.61328C48.4746 7.72005 49.1582 7.05013 49.9785 6.60352C50.7988 6.1569 51.7103 5.93359 52.7129 5.93359C55.0462 5.93359 56.5273 6.89062 57.1562 8.80469C57.6849 7.88411 58.3913 7.17773 59.2754 6.68555C60.1595 6.18424 61.1348 5.93359 62.2012 5.93359C65.373 5.93359 66.9909 7.66536 67.0547 11.1289V21H65.4141V11.252C65.4049 9.93034 65.1178 8.95052 64.5527 8.3125C63.9967 7.67448 63.0853 7.35547 61.8184 7.35547C60.6426 7.3737 59.6491 7.75651 58.8379 8.50391C58.0267 9.24219 57.5755 10.1445 57.4844 11.2109V21H55.8438V11.1289C55.8346 9.86198 55.5339 8.91862 54.9414 8.29883C54.3581 7.66992 53.4557 7.35547 52.2344 7.35547C51.2044 7.35547 50.3203 7.65169 49.582 8.24414C48.8438 8.82747 48.2969 9.69792 47.9414 10.8555V21H46.3008V6.20703H47.873ZM84.5625 2.41992V6.20703H87.625V7.54688H84.5625V17.4043C84.5625 18.2246 84.7083 18.8353 85 19.2363C85.3008 19.6374 85.7975 19.8379 86.4902 19.8379C86.7637 19.8379 87.2057 19.7923 87.8164 19.7012L87.8848 21.041C87.4564 21.196 86.873 21.2734 86.1348 21.2734C85.0137 21.2734 84.1979 20.9499 83.6875 20.3027C83.1771 19.6465 82.9219 18.6849 82.9219 17.418V7.54688H80.2012V6.20703H82.9219V2.41992H84.5625ZM94.6426 8.70898C95.1803 7.82487 95.8685 7.14128 96.707 6.6582C97.5456 6.17513 98.4616 5.93359 99.4551 5.93359C101.041 5.93359 102.221 6.38021 102.996 7.27344C103.771 8.16667 104.163 9.50651 104.172 11.293V21H102.545V11.2793C102.536 9.95768 102.253 8.97331 101.697 8.32617C101.15 7.67904 100.271 7.35547 99.0586 7.35547C98.0469 7.35547 97.1491 7.67448 96.3652 8.3125C95.5905 8.94141 95.0163 9.79362 94.6426 10.8691V21H93.0156V0H94.6426V8.70898ZM116.111 21.2734C114.854 21.2734 113.714 20.9635 112.693 20.3438C111.682 19.724 110.893 18.8626 110.328 17.7598C109.763 16.6478 109.48 15.4036 109.48 14.0273V13.4395C109.48 12.0176 109.754 10.737 110.301 9.59766C110.857 8.45833 111.627 7.5651 112.611 6.91797C113.596 6.26172 114.662 5.93359 115.811 5.93359C117.606 5.93359 119.028 6.54883 120.076 7.7793C121.133 9.00065 121.662 10.6732 121.662 12.7969V13.7129H111.107V14.0273C111.107 15.7044 111.586 17.1035 112.543 18.2246C113.509 19.3366 114.721 19.8926 116.18 19.8926C117.055 19.8926 117.825 19.7331 118.49 19.4141C119.165 19.0951 119.775 18.5846 120.322 17.8828L121.348 18.6621C120.145 20.403 118.399 21.2734 116.111 21.2734ZM115.811 7.32812C114.58 7.32812 113.541 7.7793 112.693 8.68164C111.855 9.58398 111.344 10.7962 111.162 12.3184H120.035V12.1406C119.99 10.7188 119.584 9.5612 118.818 8.66797C118.053 7.77474 117.05 7.32812 115.811 7.32812ZM141.125 19.8926C142.264 19.8926 143.217 19.5736 143.982 18.9355C144.757 18.2884 145.176 17.4544 145.24 16.4336H146.812C146.767 17.3359 146.484 18.1608 145.965 18.9082C145.445 19.6465 144.753 20.2253 143.887 20.6445C143.03 21.0638 142.109 21.2734 141.125 21.2734C139.184 21.2734 137.643 20.599 136.504 19.25C135.374 17.901 134.809 16.0872 134.809 13.8086V13.3164C134.809 11.8581 135.064 10.5684 135.574 9.44727C136.085 8.32617 136.814 7.46029 137.762 6.84961C138.719 6.23893 139.835 5.93359 141.111 5.93359C142.734 5.93359 144.069 6.41667 145.117 7.38281C146.174 8.34896 146.74 9.62044 146.812 11.1973H145.24C145.167 10.0397 144.748 9.10547 143.982 8.39453C143.226 7.68359 142.269 7.32812 141.111 7.32812C139.635 7.32812 138.486 7.86133 137.666 8.92773C136.855 9.99414 136.449 11.4889 136.449 13.4121V13.8906C136.449 15.7773 136.855 17.2493 137.666 18.3066C138.486 19.3639 139.639 19.8926 141.125 19.8926ZM161.432 21C161.268 20.5352 161.163 19.847 161.117 18.9355C160.543 19.6829 159.809 20.2617 158.916 20.6719C158.032 21.0729 157.093 21.2734 156.1 21.2734C154.678 21.2734 153.525 20.877 152.641 20.084C151.766 19.291 151.328 18.2884 151.328 17.0762C151.328 15.6361 151.925 14.4967 153.119 13.6582C154.322 12.8197 155.995 12.4004 158.137 12.4004H161.104V10.7188C161.104 9.66146 160.775 8.83203 160.119 8.23047C159.472 7.61979 158.524 7.31445 157.275 7.31445C156.136 7.31445 155.193 7.60612 154.445 8.18945C153.698 8.77279 153.324 9.47461 153.324 10.2949L151.684 10.2812C151.684 9.10547 152.23 8.08919 153.324 7.23242C154.418 6.36654 155.762 5.93359 157.357 5.93359C159.007 5.93359 160.306 6.34831 161.254 7.17773C162.211 7.99805 162.703 9.14648 162.73 10.623V17.623C162.73 19.054 162.881 20.125 163.182 20.8359V21H161.432ZM156.291 19.8242C157.385 19.8242 158.36 19.5599 159.217 19.0312C160.083 18.5026 160.712 17.7962 161.104 16.9121V13.6582H158.178C156.546 13.6764 155.27 13.9772 154.35 14.5605C153.429 15.1348 152.969 15.9277 152.969 16.9395C152.969 17.7689 153.274 18.457 153.885 19.0039C154.505 19.5508 155.307 19.8242 156.291 19.8242ZM177.965 17.2402C177.965 16.429 177.637 15.7773 176.98 15.2852C176.333 14.793 175.354 14.4102 174.041 14.1367C172.729 13.8542 171.708 13.5352 170.979 13.1797C170.258 12.8151 169.721 12.373 169.365 11.8535C169.019 11.334 168.846 10.7051 168.846 9.9668C168.846 8.80013 169.333 7.83854 170.309 7.08203C171.284 6.31641 172.533 5.93359 174.055 5.93359C175.704 5.93359 177.026 6.34375 178.02 7.16406C179.022 7.97526 179.523 9.03711 179.523 10.3496H177.883C177.883 9.48372 177.518 8.76367 176.789 8.18945C176.069 7.61523 175.158 7.32812 174.055 7.32812C172.979 7.32812 172.113 7.56966 171.457 8.05273C170.81 8.52669 170.486 9.14648 170.486 9.91211C170.486 10.6504 170.755 11.2246 171.293 11.6348C171.84 12.0358 172.829 12.4049 174.26 12.7422C175.7 13.0794 176.775 13.4395 177.486 13.8223C178.206 14.2051 178.74 14.6654 179.086 15.2031C179.432 15.7409 179.605 16.3926 179.605 17.1582C179.605 18.4069 179.1 19.4049 178.088 20.1523C177.085 20.8997 175.773 21.2734 174.15 21.2734C172.428 21.2734 171.029 20.8587 169.953 20.0293C168.887 19.1908 168.354 18.1335 168.354 16.8574H169.994C170.058 17.8145 170.459 18.5618 171.197 19.0996C171.945 19.6283 172.929 19.8926 174.15 19.8926C175.29 19.8926 176.21 19.6419 176.912 19.1406C177.614 18.6393 177.965 18.0059 177.965 17.2402ZM187.84 2.41992V6.20703H190.902V7.54688H187.84V17.4043C187.84 18.2246 187.986 18.8353 188.277 19.2363C188.578 19.6374 189.075 19.8379 189.768 19.8379C190.041 19.8379 190.483 19.7923 191.094 19.7012L191.162 21.041C190.734 21.196 190.15 21.2734 189.412 21.2734C188.291 21.2734 187.475 20.9499 186.965 20.3027C186.454 19.6465 186.199 18.6849 186.199 17.418V7.54688H183.479V6.20703H186.199V2.41992H187.84ZM198.125 21H196.484V0H198.125V21ZM210.311 21.2734C209.053 21.2734 207.913 20.9635 206.893 20.3438C205.881 19.724 205.092 18.8626 204.527 17.7598C203.962 16.6478 203.68 15.4036 203.68 14.0273V13.4395C203.68 12.0176 203.953 10.737 204.5 9.59766C205.056 8.45833 205.826 7.5651 206.811 6.91797C207.795 6.26172 208.861 5.93359 210.01 5.93359C211.805 5.93359 213.227 6.54883 214.275 7.7793C215.333 9.00065 215.861 10.6732 215.861 12.7969V13.7129H205.307V14.0273C205.307 15.7044 205.785 17.1035 206.742 18.2246C207.708 19.3366 208.921 19.8926 210.379 19.8926C211.254 19.8926 212.024 19.7331 212.689 19.4141C213.364 19.0951 213.975 18.5846 214.521 17.8828L215.547 18.6621C214.344 20.403 212.598 21.2734 210.311 21.2734ZM210.01 7.32812C208.779 7.32812 207.74 7.7793 206.893 8.68164C206.054 9.58398 205.544 10.7962 205.361 12.3184H214.234V12.1406C214.189 10.7188 213.783 9.5612 213.018 8.66797C212.252 7.77474 211.249 7.32812 210.01 7.32812ZM232.398 2.41992V6.20703H235.461V7.54688H232.398V17.4043C232.398 18.2246 232.544 18.8353 232.836 19.2363C233.137 19.6374 233.633 19.8379 234.326 19.8379C234.6 19.8379 235.042 19.7923 235.652 19.7012L235.721 21.041C235.292 21.196 234.709 21.2734 233.971 21.2734C232.85 21.2734 232.034 20.9499 231.523 20.3027C231.013 19.6465 230.758 18.6849 230.758 17.418V7.54688H228.037V6.20703H230.758V2.41992H232.398ZM239.676 13.3848C239.676 11.9629 239.949 10.6823 240.496 9.54297C241.052 8.40365 241.831 7.51953 242.834 6.89062C243.846 6.2526 244.99 5.93359 246.266 5.93359C248.234 5.93359 249.829 6.6263 251.051 8.01172C252.272 9.38802 252.883 11.2155 252.883 13.4941V13.8359C252.883 15.2669 252.605 16.5566 252.049 17.7051C251.502 18.8444 250.727 19.724 249.725 20.3438C248.722 20.9635 247.578 21.2734 246.293 21.2734C244.333 21.2734 242.738 20.5853 241.508 19.209C240.286 17.8236 239.676 15.9915 239.676 13.7129V13.3848ZM241.316 13.8359C241.316 15.6042 241.772 17.0579 242.684 18.1973C243.604 19.3275 244.807 19.8926 246.293 19.8926C247.77 19.8926 248.964 19.3275 249.875 18.1973C250.796 17.0579 251.256 15.5586 251.256 13.6992V13.3848C251.256 12.2546 251.046 11.2201 250.627 10.2812C250.208 9.34245 249.62 8.61784 248.863 8.10742C248.107 7.58789 247.241 7.32812 246.266 7.32812C244.807 7.32812 243.618 7.90234 242.697 9.05078C241.777 10.1901 241.316 11.6849 241.316 13.5352V13.8359ZM269.625 2.41992V6.20703H272.688V7.54688H269.625V17.4043C269.625 18.2246 269.771 18.8353 270.062 19.2363C270.363 19.6374 270.86 19.8379 271.553 19.8379C271.826 19.8379 272.268 19.7923 272.879 19.7012L272.947 21.041C272.519 21.196 271.936 21.2734 271.197 21.2734C270.076 21.2734 269.26 20.9499 268.75 20.3027C268.24 19.6465 267.984 18.6849 267.984 17.418V7.54688H265.264V6.20703H267.984V2.41992H269.625ZM279.705 8.70898C280.243 7.82487 280.931 7.14128 281.77 6.6582C282.608 6.17513 283.524 5.93359 284.518 5.93359C286.104 5.93359 287.284 6.38021 288.059 7.27344C288.833 8.16667 289.225 9.50651 289.234 11.293V21H287.607V11.2793C287.598 9.95768 287.316 8.97331 286.76 8.32617C286.213 7.67904 285.333 7.35547 284.121 7.35547C283.109 7.35547 282.212 7.67448 281.428 8.3125C280.653 8.94141 280.079 9.79362 279.705 10.8691V21H278.078V0H279.705V8.70898ZM301.174 21.2734C299.916 21.2734 298.777 20.9635 297.756 20.3438C296.744 19.724 295.956 18.8626 295.391 17.7598C294.826 16.6478 294.543 15.4036 294.543 14.0273V13.4395C294.543 12.0176 294.816 10.737 295.363 9.59766C295.919 8.45833 296.689 7.5651 297.674 6.91797C298.658 6.26172 299.725 5.93359 300.873 5.93359C302.669 5.93359 304.09 6.54883 305.139 7.7793C306.196 9.00065 306.725 10.6732 306.725 12.7969V13.7129H296.17V14.0273C296.17 15.7044 296.648 17.1035 297.605 18.2246C298.572 19.3366 299.784 19.8926 301.242 19.8926C302.117 19.8926 302.887 19.7331 303.553 19.4141C304.227 19.0951 304.838 18.5846 305.385 17.8828L306.41 18.6621C305.207 20.403 303.462 21.2734 301.174 21.2734ZM300.873 7.32812C299.643 7.32812 298.604 7.7793 297.756 8.68164C296.917 9.58398 296.407 10.7962 296.225 12.3184H305.098V12.1406C305.052 10.7188 304.646 9.5612 303.881 8.66797C303.115 7.77474 302.113 7.32812 300.873 7.32812ZM322.209 6.20703L322.264 8.61328C322.811 7.72005 323.494 7.05013 324.314 6.60352C325.135 6.1569 326.046 5.93359 327.049 5.93359C329.382 5.93359 330.863 6.89062 331.492 8.80469C332.021 7.88411 332.727 7.17773 333.611 6.68555C334.495 6.18424 335.471 5.93359 336.537 5.93359C339.709 5.93359 341.327 7.66536 341.391 11.1289V21H339.75V11.252C339.741 9.93034 339.454 8.95052 338.889 8.3125C338.333 7.67448 337.421 7.35547 336.154 7.35547C334.979 7.3737 333.985 7.75651 333.174 8.50391C332.363 9.24219 331.911 10.1445 331.82 11.2109V21H330.18V11.1289C330.171 9.86198 329.87 8.91862 329.277 8.29883C328.694 7.66992 327.792 7.35547 326.57 7.35547C325.54 7.35547 324.656 7.65169 323.918 8.24414C323.18 8.82747 322.633 9.69792 322.277 10.8555V21H320.637V6.20703H322.209ZM357.062 19.127C356.078 20.5579 354.506 21.2734 352.346 21.2734C350.769 21.2734 349.57 20.8177 348.75 19.9062C347.93 18.9857 347.51 17.6276 347.492 15.832V6.20703H349.119V15.627C349.119 18.4434 350.258 19.8516 352.537 19.8516C354.907 19.8516 356.406 18.8717 357.035 16.9121V6.20703H358.676V21H357.09L357.062 19.127ZM373.801 17.2402C373.801 16.429 373.473 15.7773 372.816 15.2852C372.169 14.793 371.189 14.4102 369.877 14.1367C368.564 13.8542 367.544 13.5352 366.814 13.1797C366.094 12.8151 365.557 12.373 365.201 11.8535C364.855 11.334 364.682 10.7051 364.682 9.9668C364.682 8.80013 365.169 7.83854 366.145 7.08203C367.12 6.31641 368.368 5.93359 369.891 5.93359C371.54 5.93359 372.862 6.34375 373.855 7.16406C374.858 7.97526 375.359 9.03711 375.359 10.3496H373.719C373.719 9.48372 373.354 8.76367 372.625 8.18945C371.905 7.61523 370.993 7.32812 369.891 7.32812C368.815 7.32812 367.949 7.56966 367.293 8.05273C366.646 8.52669 366.322 9.14648 366.322 9.91211C366.322 10.6504 366.591 11.2246 367.129 11.6348C367.676 12.0358 368.665 12.4049 370.096 12.7422C371.536 13.0794 372.611 13.4395 373.322 13.8223C374.042 14.2051 374.576 14.6654 374.922 15.2031C375.268 15.7409 375.441 16.3926 375.441 17.1582C375.441 18.4069 374.936 19.4049 373.924 20.1523C372.921 20.8997 371.609 21.2734 369.986 21.2734C368.264 21.2734 366.865 20.8587 365.789 20.0293C364.723 19.1908 364.189 18.1335 364.189 16.8574H365.83C365.894 17.8145 366.295 18.5618 367.033 19.0996C367.781 19.6283 368.765 19.8926 369.986 19.8926C371.126 19.8926 372.046 19.6419 372.748 19.1406C373.45 18.6393 373.801 18.0059 373.801 17.2402ZM386.861 21.2734C385.604 21.2734 384.464 20.9635 383.443 20.3438C382.432 19.724 381.643 18.8626 381.078 17.7598C380.513 16.6478 380.23 15.4036 380.23 14.0273V13.4395C380.23 12.0176 380.504 10.737 381.051 9.59766C381.607 8.45833 382.377 7.5651 383.361 6.91797C384.346 6.26172 385.412 5.93359 386.561 5.93359C388.356 5.93359 389.778 6.54883 390.826 7.7793C391.883 9.00065 392.412 10.6732 392.412 12.7969V13.7129H381.857V14.0273C381.857 15.7044 382.336 17.1035 383.293 18.2246C384.259 19.3366 385.471 19.8926 386.93 19.8926C387.805 19.8926 388.575 19.7331 389.24 19.4141C389.915 19.0951 390.525 18.5846 391.072 17.8828L392.098 18.6621C390.895 20.403 389.149 21.2734 386.861 21.2734ZM386.561 7.32812C385.33 7.32812 384.291 7.7793 383.443 8.68164C382.605 9.58398 382.094 10.7962 381.912 12.3184H390.785V12.1406C390.74 10.7188 390.334 9.5612 389.568 8.66797C388.803 7.77474 387.8 7.32812 386.561 7.32812ZM407.113 19.127C406.129 20.5579 404.557 21.2734 402.396 21.2734C400.82 21.2734 399.621 20.8177 398.801 19.9062C397.98 18.9857 397.561 17.6276 397.543 15.832V6.20703H399.17V15.627C399.17 18.4434 400.309 19.8516 402.588 19.8516C404.958 19.8516 406.457 18.8717 407.086 16.9121V6.20703H408.727V21H407.141L407.113 19.127ZM416.482 6.20703L416.537 8.61328C417.084 7.72005 417.768 7.05013 418.588 6.60352C419.408 6.1569 420.32 5.93359 421.322 5.93359C423.656 5.93359 425.137 6.89062 425.766 8.80469C426.294 7.88411 427.001 7.17773 427.885 6.68555C428.769 6.18424 429.744 5.93359 430.811 5.93359C433.982 5.93359 435.6 7.66536 435.664 11.1289V21H434.023V11.252C434.014 9.93034 433.727 8.95052 433.162 8.3125C432.606 7.67448 431.695 7.35547 430.428 7.35547C429.252 7.3737 428.258 7.75651 427.447 8.50391C426.636 9.24219 426.185 10.1445 426.094 11.2109V21H424.453V11.1289C424.444 9.86198 424.143 8.91862 423.551 8.29883C422.967 7.66992 422.065 7.35547 420.844 7.35547C419.814 7.35547 418.93 7.65169 418.191 8.24414C417.453 8.82747 416.906 9.69792 416.551 10.8555V21H414.91V6.20703H416.482Z" fill="white"/>
</svg>
