<svg width="591" height="145" viewBox="0 0 591 145" fill="none" xmlns="http://www.w3.org/2000/svg">
<path d="M63.28 2C62.2133 2 61.3067 2.45333 60.56 3.36C59.8133 4.26666 59.3067 5.25333 59.04 6.32L44.48 54.32L32 14.96L19.52 54.4L4.88 6.4C4.61333 5.38666 4.13333 4.4 3.44 3.44C2.8 2.48 2.05333 2 1.2 2V1.2H12.56V2C11.8667 2 11.28 2.29333 10.8 2.88C10.3733 3.41333 10.16 4.10667 10.16 4.96C10.16 5.22666 10.2133 5.57333 10.32 6L20.72 39.92L33.44 0.719999L45.68 39.84L56.24 6C56.24 5.89333 56.2667 5.68 56.32 5.36C56.4267 4.98667 56.48 4.69333 56.48 4.48C56.48 3.73333 56.2667 3.14666 55.84 2.72C55.4133 2.24 54.9867 2 54.56 2V1.2H63.28V2ZM73.0531 53.2H73.4531C73.8798 53.2 74.2531 53.0667 74.5731 52.8C74.8931 52.48 75.1598 52.1067 75.3731 51.68C75.6398 51.2533 75.8265 50.8 75.9331 50.32C76.0931 49.84 76.1731 49.3867 76.1731 48.96V6.16C76.1731 5.78666 76.0931 5.36 75.9331 4.88C75.8265 4.4 75.6398 3.94666 75.3731 3.52C75.1598 3.09333 74.8931 2.74666 74.5731 2.48C74.2531 2.16 73.8798 2 73.4531 2H73.0531V1.2H103.853V8.64H103.053C102.946 7.41333 102.466 6.34666 101.613 5.44C100.76 4.48 99.4265 4 97.6131 4H81.5331V24.24H94.8131C96.0398 24.24 97.0531 23.8667 97.8531 23.12C98.7065 22.3733 99.1331 21.4933 99.1331 20.48H99.9331V30.48H99.1331C99.1331 29.52 98.7331 28.6933 97.9331 28C97.1331 27.3067 96.0931 26.96 94.8131 26.96H81.5331V51.2H99.0531C100.066 51.2 100.946 50.96 101.693 50.48C102.44 50 103.053 49.44 103.533 48.8C104.066 48.1067 104.44 47.3867 104.653 46.64C104.92 45.84 105.053 45.1733 105.053 44.64H105.853V54H73.0531V53.2ZM116.881 53.2H117.281C117.708 53.2 118.081 53.0667 118.401 52.8C118.721 52.48 118.988 52.1067 119.201 51.68C119.468 51.2533 119.655 50.8 119.761 50.32C119.921 49.84 120.001 49.3867 120.001 48.96V6.16C120.001 5.78666 119.921 5.36 119.761 4.88C119.655 4.4 119.468 3.94666 119.201 3.52C118.988 3.09333 118.721 2.74666 118.401 2.48C118.081 2.16 117.708 2 117.281 2H116.881V1.2H128.401V2H128.001C127.575 2 127.201 2.16 126.881 2.48C126.561 2.74666 126.295 3.09333 126.081 3.52C125.868 3.94666 125.681 4.4 125.521 4.88C125.415 5.36 125.361 5.78666 125.361 6.16V51.04H142.881C143.895 51.04 144.775 50.8 145.521 50.32C146.268 49.84 146.881 49.2533 147.361 48.56C147.895 47.8133 148.268 47.04 148.481 46.24C148.748 45.3867 148.881 44.6133 148.881 43.92H149.681V54H116.881V53.2ZM183.635 3.28C179.688 3.28 176.248 4 173.315 5.44C170.435 6.82666 168.035 8.66666 166.115 10.96C164.195 13.2 162.755 15.7333 161.795 18.56C160.888 21.3867 160.435 24.1867 160.435 26.96C160.435 30.1067 161.048 33.2 162.275 36.24C163.502 39.2267 165.182 41.8933 167.315 44.24C169.502 46.5333 172.035 48.4 174.915 49.84C177.795 51.2267 180.915 51.92 184.275 51.92C185.235 51.92 186.355 51.8133 187.635 51.6C188.968 51.3867 190.275 50.9867 191.555 50.4C192.835 49.76 194.008 48.88 195.075 47.76C196.195 46.64 197.048 45.1733 197.635 43.36H198.435V52.24C197.635 52.24 196.782 52.3467 195.875 52.56C195.022 52.7733 194.062 53.0133 192.995 53.28C191.608 53.6533 190.062 54 188.355 54.32C186.702 54.64 184.942 54.8 183.075 54.8C178.435 54.8 174.355 54 170.835 52.4C167.315 50.8 164.382 48.72 162.035 46.16C159.688 43.6 157.928 40.72 156.755 37.52C155.582 34.2667 154.995 30.9867 154.995 27.68C154.995 24.3733 155.582 21.0933 156.755 17.84C157.928 14.5867 159.715 11.68 162.115 9.12C164.515 6.50666 167.528 4.4 171.155 2.8C174.782 1.2 179.048 0.399999 183.955 0.399999C185.715 0.399999 187.288 0.559998 188.675 0.879997C190.115 1.2 191.395 1.52 192.515 1.84C193.315 2.10667 194.035 2.32 194.675 2.48C195.368 2.58666 196.035 2.64 196.675 2.64V11.52H195.875C195.555 9.86666 194.968 8.50666 194.115 7.44C193.262 6.32 192.248 5.46666 191.075 4.88C189.955 4.29333 188.728 3.89333 187.395 3.68C186.115 3.41333 184.862 3.28 183.635 3.28ZM233.685 0.399999C237.845 0.399999 241.578 1.14667 244.885 2.64C248.192 4.08 250.992 6.05333 253.285 8.56C255.632 11.0133 257.418 13.8933 258.645 17.2C259.925 20.4533 260.565 23.8667 260.565 27.44C260.565 31.44 259.818 35.12 258.325 38.48C256.885 41.84 254.885 44.72 252.325 47.12C249.765 49.52 246.778 51.4133 243.365 52.8C240.005 54.1333 236.405 54.8 232.565 54.8C228.458 54.8 224.752 54.0533 221.445 52.56C218.192 51.0667 215.418 49.0933 213.125 46.64C210.885 44.1867 209.152 41.36 207.925 38.16C206.698 34.96 206.085 31.6267 206.085 28.16C206.085 24.7467 206.698 21.3867 207.925 18.08C209.152 14.72 210.938 11.7333 213.285 9.12C215.685 6.50666 218.592 4.4 222.005 2.8C225.418 1.2 229.312 0.399999 233.685 0.399999ZM233.605 52C237.178 51.84 240.298 51.04 242.965 49.6C245.685 48.1067 247.952 46.24 249.765 44C251.578 41.7067 252.912 39.2 253.765 36.48C254.672 33.76 255.125 31.0667 255.125 28.4C255.125 25.4667 254.592 22.5067 253.525 19.52C252.458 16.5333 250.938 13.84 248.965 11.44C246.992 8.98667 244.618 7.01333 241.845 5.52C239.125 3.97333 236.058 3.2 232.645 3.2C229.338 3.2 226.378 3.94666 223.765 5.44C221.152 6.88 218.912 8.74666 217.045 11.04C215.232 13.3333 213.845 15.8933 212.885 18.72C211.925 21.5467 211.445 24.32 211.445 27.04C211.445 29.9733 212.005 32.9333 213.125 35.92C214.245 38.8533 215.792 41.52 217.765 43.92C219.738 46.32 222.058 48.2667 224.725 49.76C227.445 51.2533 230.405 52 233.605 52ZM315.624 53.2H316.024C316.398 53.2 316.744 53.04 317.064 52.72C317.384 52.4 317.651 52.0267 317.864 51.6C318.131 51.1733 318.318 50.72 318.424 50.24C318.531 49.7067 318.584 49.2267 318.584 48.8V6.72L297.944 54.88L278.344 9.2V48.8C278.344 49.2267 278.398 49.7067 278.504 50.24C278.611 50.72 278.771 51.1733 278.984 51.6C279.251 52.0267 279.544 52.4 279.864 52.72C280.184 53.04 280.558 53.2 280.984 53.2H281.384V54H272.664V53.2H273.064C273.438 53.2 273.784 53.04 274.104 52.72C274.424 52.4 274.691 52.0267 274.904 51.6C275.118 51.1733 275.278 50.72 275.384 50.24C275.491 49.7067 275.544 49.2267 275.544 48.8V6.16C275.544 5.78666 275.491 5.36 275.384 4.88C275.278 4.4 275.118 3.94666 274.904 3.52C274.691 3.09333 274.424 2.74666 274.104 2.48C273.784 2.16 273.438 2 273.064 2H272.664V1.2H280.824L299.384 44.96L317.944 1.2H326.984V2H326.584C326.158 2 325.784 2.16 325.464 2.48C325.144 2.74666 324.851 3.09333 324.584 3.52C324.371 3.94666 324.211 4.4 324.104 4.88C323.998 5.36 323.944 5.78666 323.944 6.16V48.8C323.944 49.2267 323.998 49.7067 324.104 50.24C324.211 50.72 324.371 51.1733 324.584 51.6C324.851 52.0267 325.144 52.4 325.464 52.72C325.784 53.04 326.158 53.2 326.584 53.2H326.984V54H315.624V53.2ZM339.772 53.2H340.172C340.599 53.2 340.972 53.0667 341.292 52.8C341.612 52.48 341.879 52.1067 342.092 51.68C342.359 51.2533 342.545 50.8 342.652 50.32C342.812 49.84 342.892 49.3867 342.892 48.96V6.16C342.892 5.78666 342.812 5.36 342.652 4.88C342.545 4.4 342.359 3.94666 342.092 3.52C341.879 3.09333 341.612 2.74666 341.292 2.48C340.972 2.16 340.599 2 340.172 2H339.772V1.2H370.572V8.64H369.772C369.665 7.41333 369.185 6.34666 368.332 5.44C367.479 4.48 366.145 4 364.332 4H348.252V24.24H361.532C362.759 24.24 363.772 23.8667 364.572 23.12C365.425 22.3733 365.852 21.4933 365.852 20.48H366.652V30.48H365.852C365.852 29.52 365.452 28.6933 364.652 28C363.852 27.3067 362.812 26.96 361.532 26.96H348.252V51.2H365.772C366.785 51.2 367.665 50.96 368.412 50.48C369.159 50 369.772 49.44 370.252 48.8C370.785 48.1067 371.159 47.3867 371.372 46.64C371.639 45.84 371.772 45.1733 371.772 44.64H372.572V54H339.772V53.2ZM23.84 143.2H24.24V144H12.88V143.2H13.28C13.7067 143.2 14.08 143.04 14.4 142.72C14.72 142.4 14.9867 142.027 15.2 141.6C15.4667 141.173 15.6533 140.72 15.76 140.24C15.8667 139.707 15.92 139.227 15.92 138.8V94.16H6.64C5.78667 94.16 5.04 94.3467 4.4 94.72C3.76 95.0933 3.22667 95.5733 2.8 96.16C2.37333 96.6933 2.05333 97.3067 1.84 98C1.62667 98.64 1.52 99.28 1.52 99.92H0.72V91.2H36.64V99.92H35.84C35.84 99.28 35.7333 98.64 35.52 98C35.3067 97.3067 34.9867 96.6933 34.56 96.16C34.1333 95.5733 33.6 95.0933 32.96 94.72C32.32 94.3467 31.5733 94.16 30.72 94.16H21.28V138.8C21.28 139.227 21.3333 139.707 21.44 140.24C21.5467 140.72 21.7067 141.173 21.92 141.6C22.1867 142.027 22.4533 142.4 22.72 142.72C23.04 143.04 23.4133 143.2 23.84 143.2ZM68.9975 90.4C73.1575 90.4 76.8908 91.1467 80.1975 92.64C83.5042 94.08 86.3042 96.0533 88.5975 98.56C90.9442 101.013 92.7308 103.893 93.9575 107.2C95.2375 110.453 95.8775 113.867 95.8775 117.44C95.8775 121.44 95.1308 125.12 93.6375 128.48C92.1975 131.84 90.1975 134.72 87.6375 137.12C85.0775 139.52 82.0908 141.413 78.6775 142.8C75.3175 144.133 71.7175 144.8 67.8775 144.8C63.7708 144.8 60.0642 144.053 56.7575 142.56C53.5042 141.067 50.7308 139.093 48.4375 136.64C46.1975 134.187 44.4642 131.36 43.2375 128.16C42.0108 124.96 41.3975 121.627 41.3975 118.16C41.3975 114.747 42.0108 111.387 43.2375 108.08C44.4642 104.72 46.2508 101.733 48.5975 99.12C50.9975 96.5067 53.9042 94.4 57.3175 92.8C60.7308 91.2 64.6242 90.4 68.9975 90.4ZM68.9175 142C72.4908 141.84 75.6108 141.04 78.2775 139.6C80.9975 138.107 83.2642 136.24 85.0775 134C86.8908 131.707 88.2242 129.2 89.0775 126.48C89.9842 123.76 90.4375 121.067 90.4375 118.4C90.4375 115.467 89.9042 112.507 88.8375 109.52C87.7708 106.533 86.2508 103.84 84.2775 101.44C82.3042 98.9867 79.9308 97.0133 77.1575 95.52C74.4375 93.9733 71.3708 93.2 67.9575 93.2C64.6508 93.2 61.6908 93.9467 59.0775 95.44C56.4642 96.88 54.2242 98.7467 52.3575 101.04C50.5442 103.333 49.1575 105.893 48.1975 108.72C47.2375 111.547 46.7575 114.32 46.7575 117.04C46.7575 119.973 47.3175 122.933 48.4375 125.92C49.5575 128.853 51.1042 131.52 53.0775 133.92C55.0508 136.32 57.3708 138.267 60.0375 139.76C62.7575 141.253 65.7175 142 68.9175 142ZM153.918 143.2H154.318V144H142.958V143.2H143.358C143.785 143.2 144.158 143.04 144.478 142.72C144.798 142.4 145.065 142.027 145.278 141.6C145.545 141.173 145.731 140.72 145.838 140.24C145.945 139.707 145.998 139.227 145.998 138.8V94.16H136.718C135.865 94.16 135.118 94.3467 134.478 94.72C133.838 95.0933 133.305 95.5733 132.878 96.16C132.451 96.6933 132.131 97.3067 131.918 98C131.705 98.64 131.598 99.28 131.598 99.92H130.798V91.2H166.718V99.92H165.918C165.918 99.28 165.811 98.64 165.598 98C165.385 97.3067 165.065 96.6933 164.638 96.16C164.211 95.5733 163.678 95.0933 163.038 94.72C162.398 94.3467 161.651 94.16 160.798 94.16H151.358V138.8C151.358 139.227 151.411 139.707 151.518 140.24C151.625 140.72 151.785 141.173 151.998 141.6C152.265 142.027 152.531 142.4 152.798 142.72C153.118 143.04 153.491 143.2 153.918 143.2ZM208.02 143.2H208.42C208.793 143.2 209.14 143.067 209.46 142.8C209.78 142.48 210.047 142.107 210.26 141.68C210.527 141.2 210.713 140.72 210.82 140.24C210.927 139.707 210.98 139.227 210.98 138.8V117.04H185.38V138.8C185.38 139.227 185.433 139.707 185.54 140.24C185.647 140.72 185.807 141.173 186.02 141.6C186.233 142.027 186.473 142.4 186.74 142.72C187.06 143.04 187.433 143.2 187.86 143.2H188.26V144H177.06V143.2H177.46C177.833 143.2 178.18 143.067 178.5 142.8C178.82 142.48 179.087 142.107 179.3 141.68C179.567 141.2 179.753 140.72 179.86 140.24C179.967 139.707 180.02 139.227 180.02 138.8V96.16C180.02 95.7867 179.967 95.36 179.86 94.88C179.753 94.4 179.593 93.9467 179.38 93.52C179.167 93.0933 178.9 92.7467 178.58 92.48C178.26 92.16 177.887 92 177.46 92H177.06V91.2H188.26V92H187.86C187.433 92 187.06 92.16 186.74 92.48C186.42 92.7467 186.153 93.0933 185.94 93.52C185.78 93.9467 185.647 94.4 185.54 94.88C185.433 95.36 185.38 95.7867 185.38 96.16V114.24H210.98V96.16C210.98 95.7867 210.927 95.36 210.82 94.88C210.713 94.4 210.553 93.9467 210.34 93.52C210.127 93.0933 209.86 92.7467 209.54 92.48C209.22 92.16 208.847 92 208.42 92H208.02V91.2H219.22V92H218.82C218.393 92 218.02 92.16 217.7 92.48C217.38 92.7467 217.113 93.0933 216.9 93.52C216.74 93.9467 216.607 94.4 216.5 94.88C216.393 95.36 216.34 95.7867 216.34 96.16V138.8C216.34 139.227 216.393 139.707 216.5 140.24C216.66 140.72 216.847 141.173 217.06 141.6C217.273 142.027 217.513 142.4 217.78 142.72C218.1 143.04 218.447 143.2 218.82 143.2H219.22V144H208.02V143.2ZM230.866 143.2H231.266C231.692 143.2 232.066 143.067 232.386 142.8C232.706 142.48 232.972 142.107 233.186 141.68C233.452 141.253 233.639 140.8 233.746 140.32C233.906 139.84 233.986 139.387 233.986 138.96V96.16C233.986 95.7867 233.906 95.36 233.746 94.88C233.639 94.4 233.452 93.9467 233.186 93.52C232.972 93.0933 232.706 92.7467 232.386 92.48C232.066 92.16 231.692 92 231.266 92H230.866V91.2H261.666V98.64H260.866C260.759 97.4133 260.279 96.3467 259.426 95.44C258.572 94.48 257.239 94 255.426 94H239.346V114.24H252.626C253.852 114.24 254.866 113.867 255.666 113.12C256.519 112.373 256.946 111.493 256.946 110.48H257.746V120.48H256.946C256.946 119.52 256.546 118.693 255.746 118C254.946 117.307 253.906 116.96 252.626 116.96H239.346V141.2H256.866C257.879 141.2 258.759 140.96 259.506 140.48C260.252 140 260.866 139.44 261.346 138.8C261.879 138.107 262.252 137.387 262.466 136.64C262.732 135.84 262.866 135.173 262.866 134.64H263.666V144H230.866V143.2ZM300.475 143.2H300.875C301.302 143.2 301.675 143.067 301.995 142.8C302.315 142.48 302.582 142.107 302.795 141.68C303.062 141.253 303.248 140.8 303.355 140.32C303.515 139.84 303.595 139.387 303.595 138.96V96.16C303.595 95.7867 303.515 95.36 303.355 94.88C303.248 94.4 303.062 93.9467 302.795 93.52C302.582 93.0933 302.315 92.7467 301.995 92.48C301.675 92.16 301.302 92 300.875 92H300.475V91.2H311.995V92H311.595C311.168 92 310.795 92.16 310.475 92.48C310.155 92.7467 309.888 93.0933 309.675 93.52C309.462 93.9467 309.275 94.4 309.115 94.88C309.008 95.36 308.955 95.7867 308.955 96.16V141.04H326.475C327.488 141.04 328.368 140.8 329.115 140.32C329.862 139.84 330.475 139.253 330.955 138.56C331.488 137.813 331.862 137.04 332.075 136.24C332.342 135.387 332.475 134.613 332.475 133.92H333.275V144H300.475V143.2ZM366.341 90.4C370.501 90.4 374.235 91.1467 377.541 92.64C380.848 94.08 383.648 96.0533 385.941 98.56C388.288 101.013 390.075 103.893 391.301 107.2C392.581 110.453 393.221 113.867 393.221 117.44C393.221 121.44 392.475 125.12 390.981 128.48C389.541 131.84 387.541 134.72 384.981 137.12C382.421 139.52 379.435 141.413 376.021 142.8C372.661 144.133 369.061 144.8 365.221 144.8C361.115 144.8 357.408 144.053 354.101 142.56C350.848 141.067 348.075 139.093 345.781 136.64C343.541 134.187 341.808 131.36 340.581 128.16C339.355 124.96 338.741 121.627 338.741 118.16C338.741 114.747 339.355 111.387 340.581 108.08C341.808 104.72 343.595 101.733 345.941 99.12C348.341 96.5067 351.248 94.4 354.661 92.8C358.075 91.2 361.968 90.4 366.341 90.4ZM366.261 142C369.835 141.84 372.955 141.04 375.621 139.6C378.341 138.107 380.608 136.24 382.421 134C384.235 131.707 385.568 129.2 386.421 126.48C387.328 123.76 387.781 121.067 387.781 118.4C387.781 115.467 387.248 112.507 386.181 109.52C385.115 106.533 383.595 103.84 381.621 101.44C379.648 98.9867 377.275 97.0133 374.501 95.52C371.781 93.9733 368.715 93.2 365.301 93.2C361.995 93.2 359.035 93.9467 356.421 95.44C353.808 96.88 351.568 98.7467 349.701 101.04C347.888 103.333 346.501 105.893 345.541 108.72C344.581 111.547 344.101 114.32 344.101 117.04C344.101 119.973 344.661 122.933 345.781 125.92C346.901 128.853 348.448 131.52 350.421 133.92C352.395 136.32 354.715 138.267 357.381 139.76C360.101 141.253 363.061 142 366.261 142ZM405.241 91.2H416.601V92H416.201C415.774 92 415.401 92.16 415.081 92.48C414.761 92.7467 414.467 93.0933 414.201 93.52C413.987 93.9467 413.827 94.4 413.721 94.88C413.614 95.36 413.561 95.7867 413.561 96.16V127.76C413.561 129.84 413.774 131.76 414.201 133.52C414.627 135.28 415.347 136.8 416.361 138.08C417.374 139.36 418.707 140.373 420.361 141.12C422.014 141.813 424.041 142.16 426.441 142.16C429.107 142.16 431.241 141.733 432.841 140.88C434.441 140.027 435.667 138.933 436.521 137.6C437.374 136.213 437.934 134.667 438.201 132.96C438.467 131.253 438.601 129.573 438.601 127.92V96.16C438.601 95.7867 438.547 95.36 438.441 94.88C438.334 94.4 438.147 93.9467 437.881 93.52C437.667 93.0933 437.401 92.7467 437.081 92.48C436.761 92.16 436.414 92 436.041 92H435.641V91.2H444.361V92H443.961C443.534 92 443.161 92.16 442.841 92.48C442.574 92.7467 442.307 93.0933 442.041 93.52C441.827 93.9467 441.667 94.4 441.561 94.88C441.454 95.36 441.401 95.7867 441.401 96.16V127.68C441.401 131.147 440.974 134 440.121 136.24C439.267 138.427 438.094 140.16 436.601 141.44C435.107 142.72 433.347 143.6 431.321 144.08C429.347 144.56 427.241 144.8 425.001 144.8C422.601 144.8 420.361 144.533 418.281 144C416.254 143.52 414.494 142.64 413.001 141.36C411.507 140.08 410.334 138.347 409.481 136.16C408.627 133.92 408.201 131.12 408.201 127.76V96.16C408.201 95.7867 408.147 95.36 408.041 94.88C407.934 94.4 407.747 93.9467 407.481 93.52C407.267 93.0933 407.001 92.7467 406.681 92.48C406.361 92.16 406.014 92 405.641 92H405.241V91.2ZM463.519 94C463.519 94.32 463.599 94.72 463.759 95.2L477.839 133.12L491.919 94.8C491.973 94.6933 492.026 94.5333 492.079 94.32C492.133 94.1067 492.159 93.9467 492.159 93.84C492.159 93.2 491.893 92.7467 491.359 92.48C490.879 92.16 490.426 92 489.999 92V91.2H498.719V92C497.919 92 497.173 92.2133 496.479 92.64C495.839 93.0667 495.333 93.7867 494.959 94.8L476.639 144.96L457.919 95.04C457.599 94.24 457.119 93.5467 456.479 92.96C455.893 92.3733 455.146 92.0533 454.239 92V91.2H465.599V92C465.119 92 464.639 92.1867 464.159 92.56C463.733 92.88 463.519 93.36 463.519 94ZM519.949 143.2H520.349V144H509.069V143.2H509.469C509.842 143.2 510.189 143.04 510.509 142.72C510.829 142.4 511.095 142.027 511.309 141.6C511.575 141.173 511.762 140.72 511.869 140.24C511.975 139.707 512.029 139.227 512.029 138.8V96.16C512.029 95.7867 511.975 95.36 511.869 94.88C511.762 94.4 511.575 93.9467 511.309 93.52C511.095 93.0933 510.829 92.7467 510.509 92.48C510.189 92.16 509.842 92 509.469 92H509.069V91.2H522.989C528.322 91.2 532.429 92.24 535.309 94.32C538.242 96.4 539.709 99.4667 539.709 103.52C539.709 105.547 539.362 107.333 538.669 108.88C538.029 110.373 537.149 111.68 536.029 112.8C534.909 113.867 533.575 114.747 532.029 115.44C530.535 116.08 528.935 116.56 527.229 116.88L532.989 125.68C534.375 127.813 535.789 129.92 537.229 132C538.669 134.027 540.082 136.133 541.469 138.32C541.842 138.853 542.242 139.413 542.669 140C543.149 140.587 543.629 141.12 544.109 141.6C544.642 142.08 545.175 142.48 545.709 142.8C546.295 143.067 546.882 143.2 547.469 143.2V144H544.029C541.895 144 540.135 143.493 538.749 142.48C537.415 141.413 536.295 140.187 535.389 138.8C532.989 135.28 530.589 131.707 528.189 128.08C525.842 124.453 523.495 120.88 521.149 117.36C520.562 117.307 519.922 117.253 519.229 117.2C518.589 117.093 517.975 116.987 517.389 116.88V138.8C517.389 139.227 517.442 139.707 517.549 140.24C517.655 140.72 517.815 141.173 518.029 141.6C518.295 142.027 518.562 142.4 518.829 142.72C519.149 143.04 519.522 143.2 519.949 143.2ZM517.389 93.92V114.24H517.789C518.215 114.293 518.882 114.347 519.789 114.4C520.749 114.4 521.922 114.4 523.309 114.4C524.429 114.4 525.602 114.24 526.829 113.92C528.109 113.547 529.282 112.96 530.349 112.16C531.469 111.307 532.375 110.213 533.069 108.88C533.815 107.547 534.189 105.867 534.189 103.84C534.189 101.813 533.789 100.16 532.989 98.88C532.242 97.6 531.175 96.5867 529.789 95.84C528.455 95.0933 526.829 94.5867 524.909 94.32C522.989 94.0533 520.882 93.92 518.589 93.92H517.389ZM557.272 143.2H557.672C558.099 143.2 558.472 143.067 558.792 142.8C559.112 142.48 559.379 142.107 559.592 141.68C559.859 141.253 560.045 140.8 560.152 140.32C560.312 139.84 560.392 139.387 560.392 138.96V96.16C560.392 95.7867 560.312 95.36 560.152 94.88C560.045 94.4 559.859 93.9467 559.592 93.52C559.379 93.0933 559.112 92.7467 558.792 92.48C558.472 92.16 558.099 92 557.672 92H557.272V91.2H588.072V98.64H587.272C587.165 97.4133 586.685 96.3467 585.832 95.44C584.979 94.48 583.645 94 581.832 94H565.752V114.24H579.032C580.259 114.24 581.272 113.867 582.072 113.12C582.925 112.373 583.352 111.493 583.352 110.48H584.152V120.48H583.352C583.352 119.52 582.952 118.693 582.152 118C581.352 117.307 580.312 116.96 579.032 116.96H565.752V141.2H583.272C584.285 141.2 585.165 140.96 585.912 140.48C586.659 140 587.272 139.44 587.752 138.8C588.285 138.107 588.659 137.387 588.872 136.64C589.139 135.84 589.272 135.173 589.272 134.64H590.072V144H557.272V143.2Z" fill="white"/>
</svg>
